<svg width="700" height="840" viewBox="0 0 700 840" fill="none" xmlns="http://www.w3.org/2000/svg">
  <rect width="700" height="840" rx="48" fill="url(#bg)"/>
  <path d="M223 284C223 205.05 287.05 141 366 141C444.95 141 509 205.05 509 284V325H465V284C465 229.351 420.649 185 366 185C311.351 185 267 229.351 267 284V325H223V284Z" fill="#EFE2D0"/>
  <g filter="url(#shadow)">
    <path d="M130 324C130 290.863 156.863 264 190 264H533C566.137 264 593 290.863 593 324V598C593 682.499 524.499 751 440 751H283C198.501 751 130 682.499 130 598V324Z" fill="url(#bag)"/>
    <path d="M158 354C158 325.833 180.833 303 209 303H514C542.167 303 565 325.833 565 354V591C565 660.588 508.588 717 439 717H284C214.412 717 158 660.588 158 591V354Z" stroke="#F2E6D9" stroke-width="7"/>
  </g>
  <rect x="305" y="444" width="118" height="24" rx="12" fill="#F7EEE4"/>
  <defs>
    <filter id="shadow" x="94" y="238" width="535" height="549" filterUnits="userSpaceOnUse" color-interpolation-filters="sRGB">
      <feFlood flood-opacity="0" result="BackgroundImageFix"/>
      <feColorMatrix in="SourceAlpha" type="matrix" values="0 0 0 0 0 0 0 0 0 0 0 0 0 0 0 0 0 0 127 0" result="hardAlpha"/>
      <feOffset dy="18"/>
      <feGaussianBlur stdDeviation="18"/>
      <feColorMatrix type="matrix" values="0 0 0 0 0.06 0 0 0 0 0.05 0 0 0 0 0.05 0 0 0 0.2 0"/>
      <feBlend mode="normal" in2="BackgroundImageFix" result="effect1_dropShadow_0_1"/>
      <feBlend mode="normal" in="SourceGraphic" in2="effect1_dropShadow_0_1" result="shape"/>
    </filter>
    <linearGradient id="bg" x1="39" y1="53" x2="649" y2="795" gradientUnits="userSpaceOnUse">
      <stop stop-color="#F8F0E8"/>
      <stop offset="1" stop-color="#E1D0BB"/>
    </linearGradient>
    <linearGradient id="bag" x1="150" y1="266" x2="568" y2="747" gradientUnits="userSpaceOnUse">
      <stop stop-color="#353130"/>
      <stop offset="1" stop-color="#151313"/>
    </linearGradient>
  </defs>
</svg>
