<svg width="700" height="840" viewBox="0 0 700 840" fill="none" xmlns="http://www.w3.org/2000/svg">
  <rect width="700" height="840" rx="48" fill="url(#bg)"/>
  <path d="M259 298C259 233.935 310.935 182 375 182C439.065 182 491 233.935 491 298V330H451V298C451 256.026 416.974 222 375 222C333.026 222 299 256.026 299 298V330H259V298Z" fill="#F9EFF2"/>
  <g filter="url(#shadow)">
    <rect x="174" y="308" width="402" height="319" rx="104" fill="url(#bag)"/>
    <rect x="198" y="332" width="354" height="271" rx="80" stroke="#FFF5F7" stroke-width="7"/>
  </g>
  <rect x="315" y="429" width="120" height="24" rx="12" fill="#FFF7F9"/>
  <defs>
    <filter id="shadow" x="140" y="282" width="470" height="387" filterUnits="userSpaceOnUse" color-interpolation-filters="sRGB">
      <feFlood flood-opacity="0" result="BackgroundImageFix"/>
      <feColorMatrix in="SourceAlpha" type="matrix" values="0 0 0 0 0 0 0 0 0 0 0 0 0 0 0 0 0 0 127 0" result="hardAlpha"/>
      <feOffset dy="18"/>
      <feGaussianBlur stdDeviation="17"/>
      <feColorMatrix type="matrix" values="0 0 0 0 0.12 0 0 0 0 0.09 0 0 0 0 0.13 0 0 0 0.18 0"/>
      <feBlend mode="normal" in2="BackgroundImageFix" result="effect1_dropShadow_0_1"/>
      <feBlend mode="normal" in="SourceGraphic" in2="effect1_dropShadow_0_1" result="shape"/>
    </filter>
    <linearGradient id="bg" x1="36" y1="54" x2="648" y2="801" gradientUnits="userSpaceOnUse">
      <stop stop-color="#FFF7F8"/>
      <stop offset="1" stop-color="#F2CDD4"/>
    </linearGradient>
    <linearGradient id="bag" x1="184" y1="318" x2="558" y2="625" gradientUnits="userSpaceOnUse">
      <stop stop-color="#F0B9C2"/>
      <stop offset="1" stop-color="#C88793"/>
    </linearGradient>
  </defs>
</svg>
