<svg width="700" height="840" viewBox="0 0 700 840" fill="none" xmlns="http://www.w3.org/2000/svg">
  <rect width="700" height="840" rx="48" fill="url(#bg)"/>
  <path d="M214 270C214 214.772 258.772 170 314 170H386C441.228 170 486 214.772 486 270V309H445V270C445 237.416 418.584 211 386 211H314C281.416 211 255 237.416 255 270V309H214V270Z" fill="#EFE8DF"/>
  <g filter="url(#shadow)">
    <rect x="126" y="308" width="448" height="271" rx="92" fill="url(#bag)"/>
    <rect x="153" y="335" width="394" height="217" rx="66" stroke="#F5F0E9" stroke-width="7"/>
  </g>
  <rect x="287" y="420" width="126" height="24" rx="12" fill="#F6F1EA"/>
  <circle cx="195" cy="566" r="18" fill="#F6F1EA" fill-opacity="0.8"/>
  <circle cx="505" cy="566" r="18" fill="#F6F1EA" fill-opacity="0.8"/>
  <defs>
    <filter id="shadow" x="92" y="282" width="516" height="339" filterUnits="userSpaceOnUse" color-interpolation-filters="sRGB">
      <feFlood flood-opacity="0" result="BackgroundImageFix"/>
      <feColorMatrix in="SourceAlpha" type="matrix" values="0 0 0 0 0 0 0 0 0 0 0 0 0 0 0 0 0 0 127 0" result="hardAlpha"/>
      <feOffset dy="16"/>
      <feGaussianBlur stdDeviation="17"/>
      <feColorMatrix type="matrix" values="0 0 0 0 0.06 0 0 0 0 0.06 0 0 0 0 0.07 0 0 0 0.2 0"/>
      <feBlend mode="normal" in2="BackgroundImageFix" result="effect1_dropShadow_0_1"/>
      <feBlend mode="normal" in="SourceGraphic" in2="effect1_dropShadow_0_1" result="shape"/>
    </filter>
    <linearGradient id="bg" x1="40" y1="46" x2="650" y2="798" gradientUnits="userSpaceOnUse">
      <stop stop-color="#F7F7F7"/>
      <stop offset="1" stop-color="#D8D8D8"/>
    </linearGradient>
    <linearGradient id="bag" x1="140" y1="316" x2="566" y2="575" gradientUnits="userSpaceOnUse">
      <stop stop-color="#B3A398"/>
      <stop offset="1" stop-color="#7F7670"/>
    </linearGradient>
  </defs>
</svg>
